<svg width="159" height="40" viewBox="0 0 159 40" fill="none" xmlns="http://www.w3.org/2000/svg">
<path d="M6 28H17V34H0V6H6V28ZM90 24.7C90.0228 25.133 90.0228 25.567 90 26H75.81C75.8314 26.2639 75.8783 26.5251 75.95 26.78C76.2417 27.7583 76.8472 28.6134 77.6731 29.2134C78.499 29.8134 79.4994 30.125 80.52 30.1C81.3857 30.0911 82.2382 29.8868 83.0139 29.5024C83.7896 29.118 84.4686 28.5634 85 27.88L89.26 30.57C87.67 32.71 84.67 34.5 80.45 34.5C74.85 34.5 70 31.18 70 24.55C70 17.92 75 14.55 80.37 14.55C85.74 14.55 90 18 90 24.7ZM84.24 22.2C84.24 20.2 82.87 18.6 80.24 18.6C77.61 18.6 75.98 20.17 75.84 22.2H84.24ZM70.65 15H63.33L57.12 22.65H57V6H51V34H57V24.83H57.12L63.48 34H71L63.18 23.53L70.65 15ZM107 6H113V34H107.28V31.54H107.2C106.509 32.5156 105.583 33.3017 104.508 33.826C103.434 34.3502 102.244 34.5958 101.05 34.54C96.87 34.54 92.05 31.54 92.05 24.54C92.05 18.27 96.27 14.54 101.05 14.54C102.154 14.4991 103.254 14.6817 104.285 15.077C105.316 15.4722 106.257 16.0719 107.05 16.84L107 6ZM107.3 24.5C107.361 23.8396 107.283 23.1738 107.072 22.5451C106.861 21.9164 106.521 21.3387 106.074 20.8487C105.627 20.3588 105.083 19.9675 104.476 19.6997C103.869 19.4319 103.213 19.2937 102.55 19.2937C101.887 19.2937 101.231 19.4319 100.624 19.6997C100.017 19.9675 99.4732 20.3588 99.0262 20.8487C98.5792 21.3387 98.2393 21.9164 98.0282 22.5451C97.817 23.1738 97.7393 23.8396 97.8 24.5C97.7393 25.1604 97.817 25.8262 98.0282 26.4549C98.2393 27.0836 98.5792 27.6613 99.0262 28.1513C99.4732 28.6412 100.017 29.0325 100.624 29.3003C101.231 29.5681 101.887 29.7063 102.55 29.7063C103.213 29.7063 103.869 29.5681 104.476 29.3003C105.083 29.0325 105.627 28.6412 106.074 28.1513C106.521 27.6613 106.861 27.0836 107.072 26.4549C107.283 25.8262 107.361 25.1604 107.3 24.5ZM40.83 14.5C39.6618 14.4772 38.5055 14.7383 37.4604 15.2609C36.4154 15.7834 35.5127 16.5518 34.83 17.5H34.7V15H29V34H35V23.81C34.9717 23.2837 35.0477 22.7571 35.2236 22.2603C35.3995 21.7635 35.6718 21.3064 36.0249 20.9151C36.378 20.5239 36.805 20.2063 37.2812 19.9806C37.7575 19.755 38.2736 19.6256 38.8 19.6C40.49 19.6 42 20.6 42 23.73V34H48V22.35C48 16.52 44.19 14.5 40.83 14.5ZM23 5.45C22.3001 5.45986 21.6187 5.67641 21.0415 6.07244C20.4644 6.46846 20.0171 7.02628 19.7561 7.67576C19.4951 8.32525 19.4318 9.03741 19.5744 9.72271C19.717 10.408 20.059 11.0359 20.5574 11.5274C21.0558 12.0189 21.6884 12.352 22.3756 12.485C23.0628 12.618 23.7741 12.5448 24.4198 12.2747C25.0656 12.0046 25.6171 11.5496 26.005 10.967C26.3929 10.3843 26.5999 9.69998 26.6 9C26.6041 8.52842 26.5135 8.06081 26.3334 7.62495C26.1533 7.18909 25.8875 6.79386 25.5517 6.46273C25.2159 6.1316 24.817 5.87132 24.3786 5.69735C23.9403 5.52338 23.4715 5.43926 23 5.45ZM20 34H26V15H20V34ZM159 3V37C159 37.7957 158.684 38.5587 158.121 39.1213C157.559 39.6839 156.796 40 156 40H122C121.204 40 120.441 39.6839 119.879 39.1213C119.316 38.5587 119 37.7957 119 37V3C119 2.20435 119.316 1.44129 119.879 0.87868C120.441 0.31607 121.204 0 122 0L156 0C156.796 0 157.559 0.31607 158.121 0.87868C158.684 1.44129 159 2.20435 159 3ZM131 15H125V34H131V15ZM131.6 9C131.61 8.28594 131.407 7.58507 131.018 6.98651C130.628 6.38795 130.07 5.91876 129.413 5.6386C128.756 5.35844 128.03 5.27998 127.329 5.41319C126.627 5.54639 125.981 5.88526 125.473 6.38668C124.964 6.8881 124.616 7.52942 124.473 8.22908C124.33 8.92874 124.399 9.65513 124.67 10.3159C124.94 10.9766 125.402 11.5418 125.995 11.9396C126.588 12.3375 127.286 12.5499 128 12.55C128.471 12.5607 128.94 12.4766 129.379 12.3027C129.817 12.1287 130.216 11.8684 130.552 11.5373C130.887 11.2061 131.153 10.8109 131.333 10.375C131.513 9.93919 131.604 9.47158 131.6 9ZM153 22.35C153 16.52 149.19 14.5 145.83 14.5C144.653 14.469 143.487 14.7262 142.433 15.2491C141.378 15.772 140.468 16.5447 139.78 17.5H139.7V15H134V34H140V23.81C139.972 23.2837 140.048 22.7571 140.224 22.2603C140.399 21.7635 140.672 21.3064 141.025 20.9151C141.378 20.5239 141.805 20.2063 142.281 19.9806C142.757 19.755 143.274 19.6256 143.8 19.6C145.49 19.6 147 20.6 147 23.73V34H153V22.35Z" fill="#0A66C2"/>
</svg>
