<svg width="252" height="143" viewBox="0 0 252 143" fill="none" xmlns="http://www.w3.org/2000/svg">
<path d="M171.605 12.0764C173.079 12.0238 174.682 12.0339 176.157 12.0612C185.109 12.2269 194.195 11.8335 203.132 12.0812C203.921 13.7376 204.863 16.8401 205.557 18.6519C208.122 25.3555 210.309 32.2677 212.728 39.0296L236.187 106.034C237.684 110.303 239.109 114.443 240.687 118.689C242.367 123.21 243.192 127.562 245.431 131.951C237.043 132.07 228.59 131.799 220.196 131.918C218.254 131.945 216.127 132.018 214.204 131.926C212.138 130.965 209.611 118.327 208.306 115.927C208.001 115.365 207.714 113.472 207.305 112.998C205.874 112.672 198.356 112.792 196.54 112.792L174.692 112.796C171.719 112.798 168.032 112.959 165.169 112.858C165.007 114.691 161.248 124.119 160.057 125.888C159.048 127.127 158.205 128.138 156.919 129.126C151.715 133.121 145.846 134.052 139.511 134.785C137.757 134.988 135.926 135.336 134.162 135.354C132.375 135.373 130.653 135.109 128.88 134.968C125.157 134.67 121.425 134.421 117.762 133.637C115.795 133.216 113.897 132.59 111.97 132.024C110.2 131.505 108.404 131.03 106.694 130.332C104.537 129.451 100.759 128.018 98.8575 126.803C97.979 126.242 96.1365 124.546 95.208 124.448C95.162 124.443 95.1158 124.441 95.0698 124.436C94.5219 124.385 90.3831 121.45 89.9792 120.93C89.8223 120.728 89.8832 120.393 89.9143 120.147C90.2426 117.561 92.1262 113.77 93.135 111.288C93.6111 110.117 94.0084 108.912 94.5115 107.752C95.0219 106.575 95.654 105.565 96.0072 104.318C96.2109 103.598 96.5026 101.787 96.8471 101.236C96.959 101.057 97.3953 100.948 97.5129 100.727C97.9682 99.8742 98.1249 98.6245 98.4668 97.6905C98.7577 96.896 101.465 90.4472 101.636 90.3144L101.721 90.749C102.048 91.0124 102.587 91.0291 103.05 91.1093C104.603 92.762 104.491 92.4341 106.354 93.6181C106.881 93.9534 108.16 95.1011 108.752 95.548C113.938 99.4656 120.417 102.26 126.923 102.783C128.65 102.922 130.366 103.289 132.123 102.987C134.891 102.555 135.594 102.376 137.379 100.3C139.149 98.242 138.911 97.9077 139.854 95.4701C141.617 91.47 142.515 86.8232 144.173 82.8406C146.728 76.7011 148.48 70.5233 150.676 64.2672C151.31 62.4607 152.189 60.7469 152.81 58.9557L161.454 34.2263C162.037 32.5143 162.363 30.3678 162.951 28.8301C163.767 26.6951 164.95 24.8421 165.644 22.5201C165.986 21.3778 166.498 20.0875 166.906 18.8394C167.549 16.875 167.949 14.1701 169.072 12.4605C169.389 11.9769 171.016 12.0752 171.605 12.0764ZM172.932 88.7955C174.748 88.7009 176.693 88.8054 178.531 88.8213L187.26 88.8318C191.497 88.8105 196.473 88.6635 200.634 88.8452C200.122 87.9944 199.809 86.7148 199.538 85.7317C198.759 82.9059 197.364 79.7617 196.688 76.9698C195.739 72.6703 193.99 68.6963 192.624 64.5297C191.081 59.8183 189.862 54.9207 188.175 50.2617C187.923 49.5688 186.358 43.9401 186.356 43.9393C185.802 46.5929 184.783 49.6309 184.096 52.3388C183.29 55.5149 181.803 58.8675 180.917 62.0944C178.86 69.5966 176.205 76.9128 174.095 84.3916C173.674 85.8909 173.214 87.2652 172.932 88.7955Z" fill="black"/>
<path d="M124.821 9.13691C128.281 8.96567 131.385 9.3092 134.804 9.74972C136.615 9.98315 138.53 10.1069 140.32 10.4629C142.384 10.8737 144.174 11.6247 146.299 11.8217C146.455 11.9621 146.838 12.3856 146.983 12.4422C147.526 12.7009 148.006 12.7219 148.561 13.0057C151.009 14.2595 155.228 14.6967 156.617 17.2358C156.776 17.5252 156.505 18.4939 156.399 18.7824C154.624 23.6504 152.837 28.5155 151.076 33.3887C150.281 35.6035 149.498 37.8165 148.667 40.0193C148.393 40.7438 148.097 42.1593 147.805 42.7337C146.852 42.9785 142.669 40.3493 141.43 39.8967C139.58 39.2214 137.938 38.4137 135.956 38.0147C126.762 36.1641 121.692 38.2059 114.113 43.0239C111.273 44.7642 109.644 47.8645 107.745 50.3692C104.923 54.0902 103.983 57.5483 102.183 61.7027C98.2899 70.9152 94.58 80.2042 91.0557 89.5641C90.3574 91.3709 89.7593 93.3346 89.0692 95.058L78.3845 122.118C77.0084 125.685 75.1553 129.133 74.3377 132.864C74.039 133.117 72.2425 133.085 71.8074 133.083C63.3067 133.053 54.7988 133.178 46.2989 133.054C45.6982 133.045 45.1979 132.939 44.6386 132.717C42.9726 130.517 43.5956 131.531 43.2191 129.214C43.0901 128.42 41.9877 125.827 41.6411 124.851L33.8539 103.272C31.909 97.7879 29.7264 92.4083 27.9273 86.8692C27.1382 84.4393 25.9188 82.0404 25.0468 79.6428C24.5128 78.1742 24.0983 76.541 23.6787 75.0307C23.5945 74.5976 22.9279 73.2294 22.7402 72.695C22.3834 71.5817 21.7204 70.3804 21.39 69.2768C20.0734 64.8786 18.6459 60.743 16.7534 56.5469C15.7331 54.2848 15.214 51.3686 14.356 49.0205C13.9833 48.0008 13.3169 47.0026 12.9349 45.977C11.1591 41.3001 9.68959 36.4083 7.8275 31.7748C6.4621 28.6116 5.11792 26.0823 4.55356 22.6409C4.33101 21.2838 0.618769 14.4927 1.61964 13.4233C3.48075 13.5425 6.41436 13.3169 8.45138 13.3208L27.3799 13.3259C30.0943 13.3239 35.5609 13.0742 37.8848 13.8491C38.1675 15.8188 40.1559 20.7539 40.7927 22.8919C41.3263 24.6834 41.9887 26.6413 42.5139 28.4249C43.369 31.3294 44.5395 34.0442 45.531 36.8469C46.5117 39.6445 47.1483 42.6916 48.2128 45.4602C49.7723 49.5163 50.9785 53.5155 52.2971 57.6321L56.0187 69.0038C58.0734 75.4312 60.0491 79.2237 61.3328 86.2205C62.8929 83.4257 62.5751 83.4349 63.6254 80.7327C64.8402 77.6073 65.9324 74.4793 67.174 71.3678C67.6344 70.2862 67.8816 68.7762 68.3515 67.7345C70.107 63.8424 71.7508 59.9754 72.7852 55.8187C73.0014 54.9506 73.8722 53.6747 74.1536 52.7607C75.1828 49.418 76.8194 46.3573 77.7704 42.9862C78.3304 41.1685 79.3578 39.147 80.0057 37.304C80.4765 35.9649 81.9576 34.0682 82.5972 32.7499C83.2861 31.5259 83.9708 31.2053 84.3579 29.7313L85.8532 28.6693C86.458 26.8795 88.6581 23.8085 90.4563 23.1639C90.8968 23.0061 91.6738 22.0427 91.9832 21.6652C93.6783 19.5974 95.8386 18.3554 98.1539 17.1162C99.1917 16.5534 100.42 15.4744 101.489 15.0322C104.252 13.8896 108.069 12.1471 110.892 11.3222C114.989 10.1254 120.533 9.39763 124.821 9.13691Z" fill="black"/>
</svg>
