<svg width="181" height="48" viewBox="0 0 181 48" fill="none" xmlns="http://www.w3.org/2000/svg">
<path d="M168.93 35.023H164.516L170.079 27.0101L165.302 19.9044H169.686L172.68 24.5912L175.643 19.9044H179.937L174.917 27.1311L180.36 35.023H175.915L172.378 29.7012L168.93 35.023Z" fill="white"/>
<path d="M148.966 27.4334C148.966 22.8072 152.504 19.4811 157.009 19.4811C161.454 19.4811 165.052 22.8072 165.052 27.4334C165.052 32.0597 161.454 35.416 157.009 35.416C152.504 35.416 148.966 32.0597 148.966 27.4334ZM161.182 27.4334C161.182 24.7726 159.458 22.8676 157.009 22.8676C154.499 22.8676 152.806 24.7726 152.806 27.4334C152.806 30.0943 154.499 32.0295 157.009 32.0295C159.458 32.0295 161.182 30.0943 161.182 27.4334Z" fill="white"/>
<path d="M147.609 27.4334C147.609 32.0597 144.404 35.416 140.17 35.416C137.963 35.416 136.058 34.3275 135.272 32.9366V35.0229H131.462V12.6475H135.272V21.9907C136.058 20.6301 137.963 19.5113 140.231 19.5113C144.494 19.5113 147.609 22.8374 147.609 27.4334ZM139.445 22.8676C136.935 22.8676 135.181 24.8633 135.181 27.4334C135.181 30.0338 136.935 32.0294 139.445 32.0294C141.924 32.0294 143.708 30.0338 143.708 27.4334C143.708 24.8633 141.924 22.8676 139.445 22.8676Z" fill="white"/>
<path d="M124.451 21.9907V12.6475H128.261V35.0229H124.451V32.9063C123.696 34.2972 121.73 35.416 119.493 35.416C115.29 35.416 112.084 32.0597 112.084 27.4334C112.084 22.8374 115.229 19.5113 119.462 19.5113C121.791 19.5113 123.665 20.6301 124.451 21.9907ZM120.279 22.8676C117.739 22.8676 115.985 24.8633 115.985 27.4334C115.985 30.0338 117.739 32.0294 120.279 32.0294C122.758 32.0294 124.512 30.0338 124.512 27.4334C124.512 24.8633 122.758 22.8676 120.279 22.8676Z" fill="white"/>
<path d="M99.6893 24.9237V35.0229H95.8794V19.9043H99.5683V21.7185C100.808 20.2974 102.532 19.5112 104.316 19.5112C107.642 19.5112 109.909 21.5976 109.909 25.1051V35.0229H106.1V25.982C106.1 23.9258 104.799 23.049 103.287 23.049C101.927 23.049 100.687 23.7747 99.6893 24.9237Z" fill="white"/>
<path d="M92.6783 35.0229H88.808V32.9063C88.052 34.2972 86.1471 35.4159 83.9096 35.4159C79.7066 35.4159 76.5015 32.0596 76.5015 27.4334C76.5015 22.8373 79.6461 19.5112 83.8793 19.5112C86.2076 19.5112 88.052 20.63 88.8684 22.0209V19.9043H92.6783V35.0229ZM84.6957 22.8675C82.1558 22.8675 80.4021 24.8632 80.4021 27.4334C80.4021 30.0337 82.1558 32.0294 84.6957 32.0294C87.1752 32.0294 88.9289 30.0337 88.9289 27.4334C88.9289 24.8632 87.1752 22.8675 84.6957 22.8675Z" fill="white"/>
<path d="M74.9069 16.155L72.6996 18.9368C71.3692 17.4854 69.5247 16.8807 68.0431 16.8807C66.2893 16.8807 64.9891 17.7878 64.9891 19.1787C64.9891 20.2068 65.5032 20.9325 67.1662 21.7489L70.1899 23.2305C73.2439 24.7121 74.9976 26.1937 74.9976 29.1872C74.9976 32.2714 72.4577 35.3858 67.5895 35.3858C63.9913 35.3858 61.6026 33.9949 60 32.4226L62.2073 29.5803C63.6889 31.0921 65.5334 31.969 67.4383 31.969C69.6154 31.969 70.8551 30.7898 70.8551 29.3989C70.8551 27.9475 69.8573 27.4334 67.8012 26.4356L65.1403 25.1354C62.3283 23.7748 60.9676 22.021 60.9676 19.4206C60.9676 15.7619 64.1122 13.4941 67.9524 13.4941C70.6435 13.4941 73.0624 14.4013 74.9069 16.155Z" fill="white"/>
<path d="M44 0C46.2091 0 48 1.79086 48 4V44C48 46.2091 46.2091 48 44 48H4C1.79086 48 0 46.2091 0 44V4C0 1.79086 1.79086 0 4 0H44ZM37.7051 14.123C36.1341 14.0795 34.5365 14.1492 32.9629 14.1201C32.7038 14.1153 32.4219 14.1138 32.1631 14.123C32.0593 14.1228 31.7735 14.1055 31.7178 14.1904C31.5206 14.491 31.4498 14.9663 31.3369 15.3115C31.2653 15.5307 31.1754 15.7574 31.1152 15.958C30.9933 16.366 30.7859 16.6922 30.6426 17.0674C30.5393 17.3376 30.4812 17.7148 30.3789 18.0156L28.8594 22.3623C28.7502 22.6771 28.5958 22.9785 28.4844 23.2959C28.0983 24.3954 27.7909 25.4816 27.3418 26.5605C27.0504 27.2606 26.892 28.0782 26.582 28.7812C26.4166 29.2093 26.4585 29.2683 26.1475 29.6299C25.8337 29.9947 25.7101 30.0266 25.2236 30.1025C24.9147 30.1556 24.6131 30.0908 24.3096 30.0664C23.1661 29.9745 22.0268 29.4835 21.1152 28.7949C21.0113 28.7164 20.7872 28.5142 20.6943 28.4551C20.3669 28.247 20.3861 28.3049 20.1133 28.0146C20.0321 28.0006 19.9374 27.9973 19.8799 27.9512L19.8643 27.875C19.8305 27.9078 19.3589 29.0309 19.3076 29.1709C19.2475 29.3351 19.2197 29.5551 19.1396 29.7051C19.1188 29.7436 19.0422 29.7626 19.0225 29.7939C18.9619 29.8907 18.9108 30.2094 18.875 30.3359C18.8129 30.5552 18.702 30.7327 18.6123 30.9395C18.5239 31.1434 18.4538 31.3556 18.3701 31.5615C18.1928 31.9977 17.8625 32.6637 17.8047 33.1182C17.7992 33.1612 17.7881 33.2203 17.8154 33.2559C17.8864 33.3473 18.6146 33.8631 18.7109 33.8721C18.7187 33.8728 18.7266 33.8732 18.7344 33.874C18.8975 33.8913 19.2214 34.1892 19.376 34.2881C19.7102 34.5016 20.3748 34.7534 20.7539 34.9082C21.0543 35.0309 21.3696 35.1148 21.6807 35.2061C22.0193 35.3054 22.3536 35.4152 22.6992 35.4893C23.3431 35.6271 23.9989 35.6714 24.6533 35.7236C24.9648 35.7485 25.268 35.7944 25.582 35.791C25.8919 35.7877 26.2135 35.727 26.5215 35.6914C27.635 35.5626 28.6674 35.3985 29.582 34.6963C29.8079 34.5228 29.9567 34.3456 30.1338 34.1279C30.3432 33.8168 31.0038 32.159 31.0322 31.8369C31.5354 31.8546 32.1836 31.8266 32.7061 31.8262L36.5459 31.8252C36.8652 31.8251 38.1869 31.8041 38.4385 31.8613C38.5104 31.9446 38.5605 32.2781 38.6143 32.377C38.8435 32.7992 39.2875 35.0177 39.6504 35.1885C39.9884 35.2047 40.3627 35.1923 40.7041 35.1875C42.1796 35.1666 43.6654 35.2142 45.1396 35.1934C44.7462 34.4219 44.6009 33.6568 44.3057 32.8623C44.0283 32.1159 43.7778 31.3881 43.5146 30.6377L39.3916 18.8604C38.9665 17.6718 38.5818 16.4566 38.1309 15.2783C38.0089 14.9598 37.8437 14.4142 37.7051 14.123ZM23.9395 13.6064C23.1858 13.6523 22.2111 13.7799 21.4912 13.9902C20.995 14.1353 20.3243 14.4418 19.8389 14.6426C19.651 14.7203 19.4353 14.9099 19.2529 15.0088C18.846 15.2266 18.4659 15.4451 18.168 15.8086C18.1134 15.8752 17.9767 16.0436 17.8994 16.0713C17.5834 16.1846 17.1972 16.7245 17.0908 17.0391L16.8281 17.2256C16.7601 17.4847 16.6396 17.5417 16.5186 17.7568C16.4061 17.9885 16.1453 18.3213 16.0625 18.5566C15.9486 18.8805 15.7684 19.2362 15.6699 19.5557C15.5028 20.1481 15.2151 20.686 15.0342 21.2734C14.9847 21.4341 14.8319 21.6589 14.7939 21.8115C14.6121 22.5421 14.3232 23.2222 14.0146 23.9062C13.9322 24.0892 13.8884 24.354 13.8076 24.5439C13.5894 25.0908 13.3971 25.6411 13.1836 26.1904C12.999 26.6654 13.0545 26.664 12.7803 27.1553C12.5547 25.9255 12.2078 25.2586 11.8467 24.1289L11.1924 22.1299C10.9606 21.4064 10.7487 20.7031 10.4746 19.9902C10.2875 19.5037 10.1753 18.9682 10.0029 18.4766C9.82866 17.984 9.62294 17.5066 9.47266 16.9961C9.38035 16.6826 9.26369 16.3383 9.16992 16.0234C9.05792 15.6476 8.70901 14.7809 8.65918 14.4346C8.25071 14.2984 7.2896 14.3424 6.8125 14.3428L3.48535 14.3418C3.12747 14.3411 2.61225 14.3803 2.28516 14.3594C2.10925 14.5473 2.76156 15.7408 2.80078 15.9795C2.89998 16.5844 3.13599 17.029 3.37598 17.585C3.70323 18.3993 3.96137 19.2591 4.27344 20.0811C4.34057 20.2613 4.45791 20.437 4.52344 20.6162C4.67424 21.0289 4.76501 21.5419 4.94434 21.9395C5.27697 22.677 5.52835 23.4037 5.75977 24.1768C5.81781 24.3706 5.93433 24.5817 5.99707 24.7773C6.03006 24.8713 6.14731 25.1123 6.16211 25.1885C6.23585 25.4539 6.30851 25.741 6.40234 25.999C6.55561 26.4204 6.77048 26.8424 6.90918 27.2695C7.22537 28.243 7.6084 29.1885 7.9502 30.1523L9.31934 33.9453C9.38029 34.1168 9.5739 34.5722 9.59668 34.7119C9.66286 35.1191 9.55384 34.9413 9.84668 35.3281C9.94468 35.3668 10.0324 35.3851 10.1377 35.3867C11.6317 35.4085 13.1279 35.3872 14.6221 35.3926C14.6992 35.3929 15.014 35.3979 15.0664 35.3535C15.2101 34.6979 15.5355 34.0916 15.7773 33.4648L17.6562 28.708C17.7774 28.4053 17.8823 28.0605 18.0049 27.7432C18.6243 26.098 19.2766 24.465 19.9609 22.8457C20.2773 22.1155 20.4425 21.5075 20.9385 20.8535C21.2723 20.4133 21.5586 19.8684 22.0576 19.5625C23.3898 18.7156 24.2815 18.3564 25.8975 18.6816C26.2457 18.7518 26.5343 18.894 26.8594 19.0127C27.0769 19.0922 27.8109 19.5537 27.9795 19.5117C28.0308 19.4108 28.0837 19.1615 28.1318 19.0342C28.2778 18.6472 28.4151 18.2583 28.5547 17.8691C28.8642 17.0127 29.1783 16.1573 29.4902 15.3018C29.5089 15.251 29.5563 15.0802 29.5283 15.0293C29.2839 14.5833 28.5425 14.5065 28.1123 14.2861C28.015 14.2364 27.9304 14.2319 27.835 14.1865C27.8091 14.1758 27.7422 14.1027 27.7148 14.0781C27.3416 14.0435 27.0268 13.9111 26.6641 13.8389C26.3495 13.7763 26.0126 13.7549 25.6943 13.7139C25.0936 13.6365 24.5475 13.5764 23.9395 13.6064ZM35.0752 20.835C35.3717 21.6538 35.5862 22.5147 35.8574 23.3428C36.0975 24.0751 36.4056 24.7736 36.5723 25.5293C36.6911 26.02 36.9363 26.5727 37.0732 27.0693C37.1208 27.242 37.1756 27.4667 37.2656 27.6162C36.5342 27.5843 35.6597 27.6105 34.915 27.6143L33.3809 27.6123C33.0578 27.6095 32.7156 27.5908 32.3965 27.6074C32.446 27.3387 32.5265 27.0973 32.6006 26.834C32.9715 25.5194 33.4382 24.2327 33.7998 22.9141C33.9554 22.347 34.2168 21.7574 34.3584 21.1992C34.4791 20.7235 34.6584 20.1899 34.7559 19.7236C34.7615 19.7431 35.0315 20.7144 35.0752 20.835Z" fill="#0A66C2"/>
</svg>
