<svg width="48" height="48" viewBox="0 0 48 48" fill="none" xmlns="http://www.w3.org/2000/svg">
<rect width="48" height="48" rx="4" fill="#0A66C2"/>
<path d="M32.1632 14.1227C32.4222 14.1134 32.704 14.1152 32.9632 14.12C34.5368 14.1491 36.1338 14.08 37.7048 14.1235C37.8435 14.4147 38.0089 14.96 38.1309 15.2785C38.5818 16.4568 38.9662 17.6717 39.3913 18.8603L43.5148 30.6376C43.778 31.388 44.0283 32.1157 44.3057 32.8621C44.601 33.6567 44.7461 34.4217 45.1395 35.1932C43.6653 35.214 42.1795 35.1665 40.7041 35.1873C40.3626 35.1922 39.9888 35.205 39.6508 35.1888C39.2877 35.0198 38.8435 32.7985 38.6142 32.3767C38.5604 32.2778 38.5101 31.945 38.4382 31.8618C38.1866 31.8045 36.8653 31.8255 36.5459 31.8256L32.7057 31.8262C32.1831 31.8267 31.5351 31.855 31.0319 31.8372C31.0034 32.1594 30.3426 33.8164 30.1333 34.1275C29.956 34.3453 29.8078 34.523 29.5817 34.6966C28.6671 35.3988 27.6354 35.5625 26.5219 35.6913C26.2136 35.7269 25.8918 35.7881 25.5817 35.7914C25.2677 35.7947 24.9649 35.7483 24.6534 35.7234C23.9989 35.6711 23.343 35.6274 22.699 35.4895C22.3534 35.4154 22.0198 35.3054 21.6811 35.2061C21.3699 35.1148 21.0543 35.0313 20.7537 34.9086C20.3745 34.7538 19.7105 34.5018 19.3763 34.2883C19.2218 34.1897 18.898 33.8915 18.7348 33.8743C18.7267 33.8734 18.7186 33.873 18.7105 33.8723C18.6142 33.8633 17.8867 33.3474 17.8157 33.256C17.7881 33.2205 17.7988 33.1615 17.8043 33.1184C17.862 32.6638 18.1931 31.9974 18.3704 31.5612C18.4541 31.3553 18.5239 31.1435 18.6124 30.9396C18.7021 30.7328 18.8132 30.5553 18.8752 30.336C18.9111 30.2095 18.9623 29.8911 19.0229 29.7944C19.0426 29.7629 19.1192 29.7437 19.1399 29.7049C19.22 29.555 19.2475 29.3353 19.3076 29.1712C19.3587 29.0315 19.8346 27.898 19.8647 27.8747L19.8796 27.951C19.9371 27.9973 20.0318 28.0003 20.1131 28.0144C20.3862 28.3049 20.3664 28.2472 20.6938 28.4553C20.7866 28.5143 21.0114 28.716 21.1154 28.7946C22.027 29.4832 23.1659 29.9744 24.3093 30.0663C24.6129 30.0907 24.9145 30.1552 25.2234 30.1022C25.71 30.0262 25.8334 29.9947 26.1472 29.6299C26.4584 29.2681 26.4165 29.2093 26.5822 28.7809C26.8922 28.0778 27.05 27.261 27.3414 26.561C27.7906 25.4818 28.0984 24.3959 28.4845 23.2963C28.5959 22.9788 28.7503 22.6775 28.8596 22.3627L30.379 18.016C30.4813 17.7151 30.5388 17.3378 30.6421 17.0675C30.7855 16.6922 30.9934 16.3665 31.1154 15.9584C31.1755 15.7576 31.2656 15.5308 31.3373 15.3114C31.4502 14.9661 31.5206 14.4907 31.718 14.1902C31.7737 14.1052 32.0596 14.1225 32.1632 14.1227ZM32.3964 27.6077C32.7155 27.591 33.0574 27.6094 33.3805 27.6122L34.9149 27.614C35.6596 27.6103 36.5342 27.5845 37.2656 27.6164C37.1756 27.4669 37.1206 27.242 37.0729 27.0691C36.936 26.5725 36.6908 26.0198 36.572 25.529C36.4053 24.7733 36.0977 24.0748 35.8577 23.3425C35.5864 22.5143 35.3721 21.6535 35.0756 20.8345C35.0314 20.7128 34.7563 19.7234 34.756 19.7232C34.6586 20.1897 34.4794 20.7237 34.3586 21.1996C34.217 21.7579 33.9556 22.3472 33.8 22.9144C33.4384 24.2331 32.9718 25.519 32.6009 26.8336C32.5268 27.0971 32.446 27.3387 32.3964 27.6077Z" fill="white"/>
<path d="M23.9399 13.606C24.548 13.5759 25.0937 13.6363 25.6946 13.7137C26.0129 13.7548 26.3496 13.7765 26.6642 13.8391C27.027 13.9113 27.3417 14.0433 27.715 14.0779C27.7425 14.1026 27.8098 14.177 27.8353 14.187C27.9308 14.2325 28.0152 14.2362 28.1127 14.286C28.543 14.5064 29.2845 14.5833 29.5287 15.0296C29.5567 15.0804 29.5091 15.2507 29.4904 15.3014C29.1785 16.1571 28.8643 17.0122 28.5548 17.8688C28.4151 18.2581 28.2774 18.6471 28.1313 19.0343C28.0832 19.1616 28.0312 19.4104 27.9799 19.5114C27.8122 19.5544 27.0771 19.0923 26.8593 19.0127C26.5342 18.894 26.2455 18.752 25.8971 18.6819C24.2811 18.3566 23.39 18.7155 22.0578 19.5624C21.5586 19.8683 21.2723 20.4132 20.9384 20.8535C20.4424 21.5075 20.2772 22.1153 19.9608 22.8456C19.2765 24.4649 18.6244 26.0976 18.0049 27.7428C17.8822 28.0604 17.7771 28.4055 17.6558 28.7085L15.7777 33.4649C15.5358 34.0917 15.2101 34.6979 15.0664 35.3537C15.0139 35.3981 14.6981 35.3925 14.6216 35.3922C13.1275 35.3868 11.632 35.4088 10.138 35.3871C10.0324 35.3855 9.94448 35.3668 9.84617 35.3279C9.55334 34.9411 9.66284 35.1193 9.59666 34.7121C9.57398 34.5725 9.38021 34.1167 9.31929 33.9452L7.95052 30.1523C7.60867 29.1883 7.22504 28.2427 6.90881 27.2691C6.7701 26.842 6.55576 26.4203 6.40249 25.9989C6.30863 25.7408 6.23578 25.4537 6.16202 25.1883C6.14721 25.1121 6.03006 24.8716 5.99707 24.7777C5.93435 24.582 5.81781 24.3709 5.75973 24.1769C5.52831 23.4038 5.2774 22.6769 4.94475 21.9393C4.76541 21.5417 4.67418 21.0291 4.52336 20.6164C4.45785 20.4372 4.34072 20.2617 4.27357 20.0815C3.96144 19.2594 3.70314 18.3996 3.37584 17.5851C3.13584 17.0291 2.89958 16.5845 2.80038 15.9796C2.76126 15.7411 2.10876 14.5474 2.28468 14.3595C2.61181 14.3804 3.12745 14.3408 3.4855 14.3414L6.81259 14.3423C7.28969 14.342 8.25057 14.2981 8.65905 14.4343C8.70873 14.7805 9.05824 15.648 9.17017 16.0238C9.26396 16.3387 9.38038 16.6828 9.4727 16.9963C9.623 17.5068 9.82874 17.984 10.003 18.4767C10.1754 18.9684 10.2873 19.504 10.4744 19.9906C10.7485 20.7036 10.9605 21.4065 11.1923 22.1301L11.8465 24.1289C12.2076 25.2587 12.5549 25.9253 12.7805 27.1551C13.0547 26.6638 12.9989 26.6655 13.1835 26.1905C13.397 25.6411 13.589 25.0913 13.8072 24.5444C13.8882 24.3543 13.9316 24.0889 14.0142 23.9058C14.3228 23.2217 14.6117 22.542 14.7935 21.8113C14.8315 21.6587 14.9846 21.4345 15.034 21.2738C15.215 20.6863 15.5026 20.1483 15.6698 19.5557C15.7682 19.2363 15.9488 18.8809 16.0627 18.557C16.1454 18.3216 16.4058 17.9882 16.5182 17.7565C16.6393 17.5414 16.7596 17.485 16.8277 17.2259L17.0905 17.0393C17.1968 16.7247 17.5835 16.1849 17.8996 16.0716C17.977 16.0438 18.1136 15.8745 18.168 15.8081C18.4659 15.4447 18.8456 15.2264 19.2526 15.0086C19.435 14.9096 19.6509 14.72 19.8388 14.6422C20.3244 14.4414 20.9953 14.1351 21.4916 13.9901C22.2117 13.7798 23.1862 13.6519 23.9399 13.606Z" fill="white"/>
</svg>
