<svg width="48" height="48" viewBox="0 0 48 48" fill="none" xmlns="http://www.w3.org/2000/svg">
<path d="M6.70009 24.5384C4.22048 22.1063 3.64797 19.3969 4.18479 16.022C4.28928 15.3649 4.80205 14.393 5.01046 13.7325C5.11628 13.3971 5.50058 12.9881 5.67715 12.6856C6.76605 10.8432 8.28 9.81633 10.1518 8.88201C10.7515 8.58265 11.6633 8.0476 12.3107 7.83964C13.0407 7.64287 14.0958 7.22901 14.826 7.16249C17.5065 6.91824 20.2858 6.82978 22.8472 7.78047C24.0135 8.21337 24.9772 8.84482 26.113 9.33021C26.7642 9.60848 27.3024 10.1945 27.8016 10.6771C29.4199 12.1423 30.2467 13.4554 30.9942 15.5197C31.9164 15.5473 32.8864 15.6022 33.8133 15.6259C34.0567 15.6321 34.6977 15.8621 34.9647 15.9132C36.5076 16.1719 37.7526 16.8563 39.1053 17.5644C40.1942 18.004 40.8521 18.7049 41.7168 19.42C42.8403 20.349 43.111 20.8372 43.7975 22.068C44.9184 24.078 45.0768 25.7976 44.8261 28.0588L44.8175 28.1048C44.6821 28.8567 44.8767 29.093 44.4618 29.8415C43.8889 30.2188 43.7481 31.6452 43.4999 31.8708C42.2453 32.9695 42.4489 33.1962 42.8861 34.7493C43.1563 35.7092 43.5015 36.6767 43.7766 37.6351C44.0634 38.6342 44.8983 39.7737 43.7409 40.3526C42.5085 40.2403 41.8454 39.6436 40.72 39.1531C39.8802 38.7871 39.0581 38.51 38.2179 38.1675C37.5994 37.9154 36.8905 37.4396 36.2665 37.1811C34.7785 37.3721 33.3137 37.6471 31.8154 37.7193C30.9354 37.7616 30.0182 37.6128 29.1589 37.6368C26.8217 37.3219 24.5817 36.4998 22.5957 35.2281C21.1819 34.1842 19.8695 32.9101 18.976 31.3669C18.5983 30.7146 18.4332 30.0371 17.9409 29.3431C17.0787 29.0283 15.3734 29.2115 14.3896 28.9026C14.0558 28.7979 14.1327 28.8417 13.9483 28.5367C13.5802 28.5249 13.1076 28.5578 12.731 28.5748C12.4611 28.8462 12.0059 28.9604 11.6712 29.1418C10.3501 29.8581 9.00753 30.3836 7.58748 30.861C7.1253 31.0196 6.56287 31.4555 6.11483 31.5858C3.34889 32.3904 5.22326 29.2086 5.51839 28.1173C5.84648 26.9041 6.16794 25.5917 6.70009 24.5384Z" fill="#275E8F"/>
<path d="M29.2613 18.1298C30.2249 17.9437 30.566 17.9503 31.5411 17.9885C32.5227 18.0086 32.9465 18.0409 33.8759 18.3193C34.3884 18.4772 35.069 18.5734 35.6057 18.739C36.6055 19.0473 37.7397 19.6289 38.6552 20.1338C39.0205 20.3353 39.6288 20.9626 39.9204 21.2498C40.9992 22.3121 41.8809 23.3453 42.2012 24.8691C42.6201 26.8615 42.3606 29.0919 41.0181 30.6949C40.4958 31.3185 39.9117 31.8413 39.4814 32.5193C39.6316 33.4667 40.3526 35.0929 40.3623 35.6853C40.5028 35.848 40.6876 36.0337 40.8377 36.1931C40.5107 36.1291 40.2057 36.1237 39.8748 36.1129C39.2298 36.0921 39.6111 35.8208 39.3217 35.4999C39.1032 35.4799 39.1877 35.5413 38.925 35.6759C35.9078 34.2521 36.8786 34.2588 33.4268 34.9445C30.6943 35.3425 27.5949 35.0071 25.1584 33.7396C21.0492 31.6022 18.7366 26.9129 21.4617 22.7358C23.3201 19.887 26.0706 18.9489 29.2613 18.1298Z" fill="#FEFEFE"/>
<path d="M29.2613 18.1298C30.2249 17.9437 30.566 17.9503 31.5411 17.9885C31.5573 18.1202 31.5623 18.155 31.5529 18.2864C31.6116 18.3152 31.6831 18.3532 31.7421 18.3776C31.2291 18.3854 29.9842 18.4468 29.4488 18.3029C29.3737 18.2336 29.3112 18.1759 29.2613 18.1298Z" fill="#D8E6EF"/>
<path d="M31.5411 17.9885C32.5227 18.0086 32.9465 18.0409 33.8759 18.3193C33.1434 18.3678 32.4765 18.373 31.7421 18.3776C31.6831 18.3532 31.6116 18.3152 31.5529 18.2864C31.5623 18.155 31.5573 18.1202 31.5411 17.9885Z" fill="#A7D7EE"/>
<path d="M36.088 25.3098C37.0218 25.0979 37.9498 25.6859 38.1572 26.6208C38.3645 27.5556 37.772 28.4808 36.8362 28.6837C35.9067 28.8851 34.9892 28.2975 34.7833 27.369C34.5774 26.4406 35.1605 25.5202 36.088 25.3098Z" fill="#469FD8"/>
<path d="M25.8752 25.3186C26.8091 25.131 27.7178 25.7376 27.9028 26.672C28.0878 27.6064 27.4787 28.5134 26.5438 28.6958C25.6125 28.8775 24.7098 28.2714 24.5255 27.3406C24.3413 26.4098 24.9449 25.5055 25.8752 25.3186Z" fill="#469FD8"/>
<path d="M30.9985 25.2838C31.4258 25.2703 31.7259 25.2668 32.1197 25.4709C33.3149 26.0903 33.3744 27.9502 32.1302 28.55C31.9697 28.6273 31.7691 28.6782 31.5966 28.7269C30.8526 28.9495 29.9429 28.1873 29.7173 27.5064C29.5753 27.0685 29.6167 26.5918 29.8319 26.1848C30.0753 25.7225 30.5079 25.4325 30.9985 25.2838Z" fill="#469FD8"/>
<path d="M16.7629 9.55075C20.8205 9.27493 24.8362 10.4992 27.2983 13.8497C27.7485 14.4624 28.0617 15.0869 28.4341 15.7439C24.1539 16.4525 19.721 19.2825 18.2085 23.5109C17.836 24.5525 17.8789 25.6396 17.585 26.592C16.6839 26.5737 16.2092 26.5179 15.3334 26.3764C14.6345 26.2476 13.5372 26.0023 12.8635 25.9913C11.7258 25.9729 10.4184 26.9981 9.3931 27.4419C8.82155 27.6893 8.57651 27.7393 7.95513 27.8489C8.06017 27.7512 8.38353 27.4509 8.43824 27.3468C8.92102 26.4283 9.28033 25.0541 9.57067 24.0655C8.19605 22.4896 6.76732 20.887 6.66039 18.6958C6.38942 13.1452 11.6737 9.85256 16.7629 9.55075Z" fill="#A7D7EE"/>
</svg>
