<svg width="40" height="40" viewBox="0 0 40 40" fill="none" xmlns="http://www.w3.org/2000/svg">
<path d="M40 3V37C40 37.7957 39.6839 38.5587 39.1213 39.1213C38.5587 39.6839 37.7957 40 37 40H3C2.20435 40 1.44129 39.6839 0.878677 39.1213C0.316068 38.5587 0 37.7957 0 37V3C0 2.20435 0.316068 1.44129 0.878677 0.87868C1.44129 0.31607 2.20435 0 3 0L37 0C37.7957 0 38.5587 0.31607 39.1213 0.87868C39.6839 1.44129 40 2.20435 40 3ZM12 15H6V34H12V15ZM12.6 9C12.6099 8.28594 12.4072 7.58507 12.0177 6.98651C11.6283 6.38795 11.0695 5.91876 10.4127 5.6386C9.75578 5.35844 9.03042 5.27998 8.32883 5.41319C7.62723 5.54639 6.98111 5.88526 6.47263 6.38668C5.96414 6.8881 5.61627 7.52942 5.47327 8.22908C5.33026 8.92874 5.39857 9.65513 5.66952 10.3159C5.94046 10.9766 6.4018 11.5418 6.99485 11.9396C7.5879 12.3375 8.28587 12.5499 9 12.55C9.47148 12.5607 9.94031 12.4766 10.3786 12.3027C10.817 12.1287 11.2159 11.8684 11.5517 11.5373C11.8875 11.2061 12.1533 10.8109 12.3334 10.375C12.5135 9.93919 12.6041 9.47158 12.6 9ZM34 22.35C34 16.52 30.19 14.5 26.83 14.5C25.6534 14.469 24.4871 14.7262 23.4326 15.2491C22.3782 15.772 21.4675 16.5447 20.78 17.5H20.7V15H15V34H21V23.81C20.9717 23.2837 21.0477 22.7571 21.2236 22.2603C21.3995 21.7635 21.6718 21.3064 22.0249 20.9151C22.378 20.5239 22.805 20.2063 23.2812 19.9806C23.7575 19.755 24.2736 19.6256 24.8 19.6C26.49 19.6 28 20.6 28 23.73V34H34V22.35Z" fill="white"/>
</svg>
